<svg xmlns="http://www.w3.org/2000/svg" xmlns:xlink="http://www.w3.org/1999/xlink" width="800" zoomAndPan="magnify" viewBox="0 0 600 599.999999" height="800" preserveAspectRatio="xMidYMid meet" version="1.0"><defs><clipPath id="c180185664"><path d="M 28.871094 0 L 532.496094 0 L 532.496094 600 L 28.871094 600 Z M 28.871094 0 " clip-rule="nonzero"/></clipPath><clipPath id="fca6953cb1"><path d="M 531 48 L 532.496094 48 L 532.496094 600 L 531 600 Z M 531 48 " clip-rule="nonzero"/></clipPath></defs><rect x="-60" width="720" fill="#ffffff" y="-60" height="719.999999" fill-opacity="1"/><rect x="-60" width="720" fill="#ffffff" y="-60" height="719.999999" fill-opacity="1"/><rect x="-60" width="720" fill="#ffffff" y="-60" height="719.999999" fill-opacity="1"/><path fill="#081a28" d="M -8.898438 -46.589844 L 600.328125 -46.589844 L 600.328125 599.625 L -8.898438 599.625 Z M -8.898438 -46.589844 " fill-opacity="1" fill-rule="nonzero"/><g clip-path="url(#c180185664)"><rect x="-60" width="720" fill="#081a28" y="-60" height="719.999999" fill-opacity="1"/></g><g clip-path="url(#fca6953cb1)"><path fill="#80aa1a" d="M 2448.945312 464.46875 C 2439.183594 461.835938 2429.042969 459.582031 2418.90625 458.078125 C 2399.003906 455.074219 2378.351562 455.824219 2358.074219 454.324219 C 2355.445312 453.945312 2352.066406 452.066406 2350.9375 449.8125 C 2343.804688 437.789062 2337.042969 425.015625 2329.910156 412.992188 C 2314.890625 387.816406 2299.117188 362.640625 2284.097656 337.464844 C 2278.839844 328.449219 2278.464844 318.679688 2281.09375 308.910156 C 2285.976562 291.25 2310.382812 282.234375 2323.527344 297.261719 C 2327.65625 302.148438 2331.789062 307.40625 2335.917969 312.667969 C 2347.183594 308.535156 2358.449219 304.027344 2369.339844 299.515625 C 2371.214844 298.765625 2373.46875 295.757812 2373.09375 294.632812 C 2368.960938 281.105469 2364.832031 267.203125 2353.566406 256.683594 C 2331.410156 236.390625 2293.484375 232.632812 2266.074219 248.039062 C 2236.410156 265.324219 2221.386719 298.765625 2228.898438 332.582031 C 2230.398438 339.34375 2231.527344 346.484375 2233.402344 353.246094 C 2236.03125 363.015625 2236.03125 372.410156 2230.398438 380.675781 C 2223.265625 391.199219 2216.132812 402.09375 2207.871094 411.488281 C 2200.734375 419.753906 2191.722656 426.894531 2183.085938 434.785156 C 2181.207031 432.53125 2180.457031 431.777344 2180.082031 430.652344 C 2169.566406 414.492188 2159.054688 398.710938 2148.914062 382.554688 C 2137.273438 363.769531 2122.628906 346.109375 2118.5 323.1875 C 2116.621094 311.539062 2122.253906 299.140625 2133.519531 293.128906 C 2144.410156 287.117188 2154.546875 288.996094 2163.558594 298.390625 C 2166.1875 301.019531 2168.441406 304.027344 2170.695312 307.40625 C 2172.949219 310.789062 2175.199219 312.292969 2179.332031 310.414062 C 2185.714844 307.78125 2192.851562 306.28125 2199.234375 303.273438 C 2215.378906 295.757812 2216.132812 301.394531 2208.621094 282.984375 C 2207.871094 281.480469 2207.871094 279.976562 2207.117188 278.851562 C 2199.984375 261.941406 2187.96875 250.292969 2171.070312 243.90625 C 2152.671875 237.144531 2134.644531 237.894531 2116.621094 244.28125 C 2094.464844 252.171875 2079.820312 267.203125 2071.5625 288.996094 C 2063.675781 309.285156 2064.800781 329.953125 2070.808594 350.617188 C 2074.1875 361.890625 2078.320312 372.410156 2071.5625 384.433594 C 2060.296875 404.726562 2050.53125 425.765625 2039.265625 445.679688 C 2032.507812 457.328125 2020.867188 463.714844 2005.472656 467.847656 C 2006.222656 451.691406 2004.71875 436.664062 2008.101562 422.761719 C 2017.863281 382.554688 2029.503906 342.726562 2040.019531 302.523438 C 2044.523438 285.613281 2048.65625 268.332031 2053.535156 251.421875 C 2055.039062 246.160156 2053.535156 244.660156 2048.277344 244.660156 C 2037.015625 245.035156 2025.75 244.660156 2014.109375 245.035156 C 2000.964844 245.035156 2000.964844 245.410156 1996.460938 257.808594 C 1996.082031 258.5625 1995.332031 259.3125 1994.957031 260.0625 C 1993.832031 259.6875 1993.078125 259.6875 1992.703125 259.3125 C 1964.539062 234.511719 1933.375 234.136719 1900.703125 249.167969 C 1869.539062 263.445312 1848.132812 287.867188 1832.738281 317.550781 C 1822.597656 336.714844 1815.464844 357.757812 1806.453125 377.671875 C 1798.566406 394.957031 1782.042969 400.96875 1765.523438 406.980469 C 1768.527344 388.945312 1770.402344 371.660156 1773.78125 354.75 C 1779.414062 328.074219 1775.660156 302.148438 1766.273438 276.972656 C 1758.011719 255.554688 1742.238281 242.78125 1718.957031 240.148438 C 1695.300781 237.519531 1675.773438 247.289062 1656.625 258.9375 C 1651.742188 261.941406 1647.238281 264.574219 1640.476562 268.707031 C 1642.730469 259.6875 1644.609375 253.300781 1646.109375 246.914062 C 1644.984375 246.160156 1644.609375 245.410156 1644.234375 245.410156 C 1628.085938 245.410156 1611.9375 245.035156 1595.792969 245.410156 C 1593.914062 245.410156 1591.285156 248.039062 1590.535156 250.292969 C 1586.78125 262.695312 1583.777344 275.46875 1580.394531 288.246094 C 1572.136719 318.304688 1563.875 348.363281 1555.613281 378.421875 C 1547.726562 407.355469 1535.710938 433.65625 1515.433594 455.824219 C 1511.679688 459.957031 1506.421875 463.339844 1501.164062 465.21875 C 1494.027344 467.847656 1488.398438 463.714844 1488.773438 456.578125 C 1488.773438 447.933594 1488.773438 439.292969 1491.023438 431.027344 C 1496.65625 408.859375 1503.417969 386.6875 1509.800781 364.519531 C 1515.808594 343.480469 1521.441406 322.4375 1522.566406 300.269531 C 1524.445312 267.203125 1493.652344 240.148438 1464.738281 239.773438 C 1440.332031 239.773438 1420.429688 249.167969 1402.03125 263.820312 C 1397.523438 267.578125 1393.394531 271.335938 1388.511719 275.09375 C 1385.132812 270.960938 1382.503906 267.203125 1379.875 263.820312 C 1367.109375 246.914062 1350.210938 239.023438 1328.804688 239.773438 C 1313.035156 240.148438 1298.765625 246.160156 1285.246094 253.300781 C 1281.117188 255.554688 1276.984375 258.183594 1270.976562 261.191406 C 1272.855469 254.804688 1273.980469 250.292969 1275.109375 245.410156 C 1258.585938 245.410156 1243.191406 245.785156 1227.792969 245.410156 C 1221.785156 245.410156 1219.15625 247.664062 1218.03125 253.300781 C 1215.777344 263.445312 1213.148438 273.964844 1210.144531 284.113281 C 1203.386719 309.660156 1196.25 335.589844 1189.492188 361.136719 C 1184.988281 379.550781 1177.476562 395.332031 1156.824219 400.589844 C 1152.691406 401.71875 1148.5625 402.46875 1143.679688 403.597656 C 1145.558594 392.699219 1147.4375 383.683594 1148.5625 374.664062 C 1150.0625 358.882812 1152.316406 343.101562 1151.191406 327.320312 C 1150.0625 307.40625 1143.679688 288.246094 1131.289062 272.085938 C 1107.632812 240.523438 1064.449219 231.132812 1025.394531 248.792969 C 988.21875 265.324219 965.3125 295.007812 949.917969 331.453125 C 943.910156 346.109375 939.40625 361.136719 934.148438 376.167969 C 928.140625 392.699219 912.742188 403.222656 893.59375 402.847656 C 894.71875 394.578125 895.84375 385.9375 897.347656 377.671875 C 901.476562 353.246094 902.605469 329.199219 896.222656 305.152344 C 890.964844 284.109375 880.449219 266.828125 862.425781 254.804688 C 830.507812 233.761719 797.460938 236.015625 765.167969 253.675781 C 728.367188 273.214844 708.089844 306.28125 694.199219 344.230469 C 686.3125 366.023438 681.054688 388.945312 672.042969 410.359375 C 663.78125 430.652344 651.015625 448.6875 631.863281 460.335938 C 612.335938 471.984375 598.820312 468.226562 592.808594 446.433594 C 591.683594 442.296875 590.933594 438.164062 590.933594 434.03125 C 588.679688 394.203125 598.441406 355.503906 608.582031 317.550781 C 614.589844 295.382812 620.972656 272.839844 628.484375 251.046875 C 636.371094 228.878906 645.757812 207.085938 654.769531 185.292969 C 655.519531 183.789062 658.898438 181.910156 660.402344 182.285156 C 670.917969 185.292969 681.054688 189.800781 691.945312 192.054688 C 708.46875 195.8125 724.988281 199.195312 741.511719 200.695312 C 750.898438 201.449219 760.285156 198.441406 769.675781 196.9375 C 789.578125 194.308594 807.226562 186.417969 821.121094 172.140625 C 847.03125 145.085938 853.039062 99.621094 817.738281 71.066406 C 783.570312 43.636719 744.890625 43.261719 705.460938 56.789062 C 681.054688 65.054688 661.527344 81.210938 645.382812 100.75 C 637.121094 110.894531 629.984375 116.53125 617.59375 109.390625 C 617.59375 109.390625 617.59375 109.390625 617.21875 109.390625 C 591.683594 105.257812 566.148438 105.257812 540.613281 109.390625 C 537.234375 109.765625 534.230469 112.023438 531.601562 113.148438 C 535.359375 125.546875 539.113281 137.195312 542.492188 148.84375 C 544.371094 155.230469 547 158.238281 554.507812 157.484375 C 568.402344 156.734375 582.296875 157.863281 595.8125 158.238281 C 598.441406 158.238281 601.445312 158.988281 604.828125 159.742188 C 603.699219 162.746094 602.949219 164.625 602.199219 166.128906 C 592.808594 190.550781 582.296875 214.597656 574.785156 239.398438 C 563.894531 275.46875 554.882812 311.917969 545.496094 348.363281 C 538.738281 374.289062 534.980469 400.96875 536.484375 427.644531 C 537.609375 447.933594 541.367188 467.472656 552.632812 485.132812 C 570.28125 512.5625 592.433594 519.324219 619.847656 515.191406 C 638.621094 512.1875 655.519531 503.542969 670.164062 490.769531 C 677.300781 484.382812 684.433594 477.617188 691.570312 470.480469 C 692.695312 471.984375 693.445312 473.484375 694.199219 474.613281 C 721.609375 514.066406 760.664062 526.839844 805.722656 508.054688 C 830.507812 497.53125 849.65625 479.496094 865.054688 458.078125 C 868.433594 453.570312 871.8125 452.445312 877.070312 452.445312 C 890.589844 452.445312 904.480469 452.445312 917.625 450.566406 C 935.648438 447.933594 931.894531 443.050781 939.027344 461.085938 C 940.15625 464.09375 941.65625 467.097656 943.160156 470.105469 C 959.683594 506.175781 998.359375 522.332031 1034.03125 515.570312 C 1066.703125 509.179688 1092.234375 489.640625 1111.386719 462.589844 C 1116.644531 455.449219 1121.527344 451.691406 1131.289062 452.445312 C 1141.425781 453.570312 1151.566406 452.820312 1163.207031 452.820312 C 1157.949219 472.359375 1153.445312 490.394531 1148.5625 509.933594 C 1166.585938 509.933594 1183.484375 509.933594 1200.382812 509.558594 C 1201.882812 509.558594 1204.136719 506.550781 1204.886719 504.671875 C 1210.144531 485.886719 1214.652344 467.097656 1219.910156 448.6875 C 1227.042969 424.261719 1234.179688 400.214844 1243.191406 376.542969 C 1253.703125 349.492188 1269.101562 324.691406 1291.253906 305.152344 C 1301.019531 296.511719 1311.15625 288.621094 1325.425781 289.746094 C 1328.429688 290.125 1332.9375 293.503906 1333.3125 295.757812 C 1334.0625 304.777344 1334.4375 314.171875 1332.183594 322.8125 C 1327.304688 342.726562 1320.921875 362.265625 1314.914062 382.179688 C 1304.398438 419.003906 1293.882812 455.824219 1283.746094 492.273438 C 1282.242188 497.910156 1281.117188 503.167969 1279.613281 510.308594 C 1297.640625 510.308594 1314.160156 510.683594 1330.683594 509.933594 C 1332.5625 509.933594 1335.191406 506.925781 1335.941406 504.671875 C 1343.828125 477.617188 1351.335938 450.566406 1358.847656 423.511719 C 1366.355469 396.457031 1375.746094 369.78125 1390.390625 345.355469 C 1402.78125 325.066406 1417.050781 305.90625 1438.453125 293.878906 C 1445.214844 290.125 1452.347656 286.367188 1460.234375 290.875 C 1468.496094 296.136719 1466.617188 304.402344 1464.738281 311.539062 C 1459.859375 333.332031 1454.601562 355.125 1447.84375 376.542969 C 1439.207031 405.101562 1430.945312 433.65625 1434.324219 463.714844 C 1436.578125 482.128906 1444.085938 497.15625 1460.234375 507.679688 C 1475.253906 517.445312 1491.402344 518.199219 1507.921875 514.066406 C 1511.304688 513.3125 1514.308594 512.9375 1518.4375 512.1875 C 1500.789062 577.566406 1483.890625 641.816406 1466.242188 706.820312 C 1468.871094 706.820312 1471.5 707.195312 1473.753906 707.195312 C 1483.515625 707.195312 1493.277344 707.195312 1503.417969 707.195312 C 1522.191406 707.195312 1521.816406 707.195312 1526.324219 688.785156 C 1533.457031 660.980469 1540.96875 632.800781 1548.480469 604.996094 C 1555.613281 578.691406 1562.371094 552.765625 1569.507812 526.464844 C 1572.886719 513.691406 1576.265625 500.914062 1579.644531 488.515625 C 1580.773438 488.890625 1581.148438 488.515625 1581.148438 488.890625 C 1584.152344 491.519531 1587.15625 494.152344 1590.160156 496.78125 C 1610.4375 514.066406 1634.09375 520.453125 1659.628906 515.191406 C 1690.046875 509.179688 1713.703125 491.144531 1732.101562 467.097656 C 1736.609375 461.085938 1742.242188 459.582031 1749 458.832031 C 1759.140625 457.703125 1769.277344 455.824219 1779.417969 453.570312 C 1786.550781 452.066406 1793.308594 450.191406 1800.070312 448.3125 C 1804.199219 458.832031 1807.953125 469.351562 1812.835938 479.121094 C 1829.359375 512.1875 1862.402344 520.828125 1891.691406 514.441406 C 1914.597656 509.558594 1934.5 497.15625 1952.148438 480.625 C 1954.777344 484.007812 1957.40625 487.765625 1960.035156 490.769531 C 1965.292969 496.40625 1970.175781 503.167969 1976.558594 507.300781 C 1999.839844 521.957031 2023.121094 517.824219 2045.277344 503.921875 C 2068.933594 488.890625 2083.578125 466.347656 2096.71875 442.675781 C 2100.476562 435.910156 2103.855469 429.148438 2107.984375 421.257812 C 2114.746094 431.777344 2120.378906 440.421875 2126.011719 449.4375 C 2130.515625 456.578125 2127.886719 465.59375 2120 468.976562 C 2094.84375 480.25 2069.308594 490.769531 2046.402344 507.300781 C 2029.503906 519.703125 2015.234375 534.355469 2009.976562 555.023438 C 2002.84375 583.953125 2016.738281 608.753906 2040.769531 621.902344 C 2073.816406 640.316406 2106.484375 636.183594 2138.777344 618.898438 C 2156.425781 609.128906 2170.695312 595.226562 2183.085938 576.816406 C 2185.714844 583.953125 2187.59375 589.214844 2189.472656 594.476562 C 2193.226562 604.242188 2198.109375 613.261719 2207.121094 619.273438 C 2234.15625 637.308594 2262.695312 638.0625 2291.234375 624.535156 C 2333.667969 604.621094 2354.320312 568.925781 2359.578125 523.082031 C 2361.078125 507.679688 2361.078125 507.679688 2376.472656 508.429688 C 2398.628906 509.179688 2420.03125 512.5625 2440.308594 519.703125 C 2445.941406 521.582031 2451.953125 517.824219 2451.953125 511.8125 L 2451.953125 472.734375 C 2454.953125 468.976562 2452.699219 465.59375 2448.945312 464.46875 Z M 744.515625 98.117188 C 756.53125 95.863281 767.796875 96.617188 779.0625 101.5 C 797.460938 109.765625 800.089844 128.179688 783.941406 140.203125 C 778.308594 144.335938 771.550781 146.964844 765.167969 149.21875 C 745.640625 156.359375 703.960938 144.335938 687.4375 134.566406 C 703.960938 117.65625 720.859375 102.628906 744.515625 98.117188 Z M 840.269531 365.273438 C 823.746094 379.175781 817.738281 396.835938 824.875 418.25 C 825.625 420.503906 825.625 424.261719 824.5 425.765625 C 814.734375 438.542969 804.972656 451.316406 789.953125 458.832031 C 769.675781 468.976562 747.519531 459.957031 740.007812 438.164062 C 734.75 423.136719 735.878906 408.105469 738.507812 392.699219 C 744.890625 357.003906 758.03125 325.066406 788.074219 302.523438 C 795.207031 297.261719 804.597656 293.878906 813.609375 292.003906 C 829.378906 288.996094 845.527344 303.273438 848.15625 320.933594 C 849.28125 328.074219 849.65625 335.589844 850.40625 342.726562 C 851.910156 352.121094 847.78125 358.882812 840.269531 365.273438 Z M 1085.101562 371.285156 C 1073.460938 381.429688 1070.082031 396.082031 1073.835938 410.738281 C 1076.089844 420.503906 1074.960938 428.019531 1067.828125 434.410156 C 1058.441406 442.675781 1050.179688 452.445312 1039.664062 458.832031 C 1020.136719 470.480469 995.355469 458.457031 990.097656 436.285156 C 988.21875 428.773438 987.46875 420.882812 986.34375 415.996094 C 988.96875 374.289062 1001.363281 338.96875 1029.148438 310.414062 C 1035.910156 303.648438 1045.296875 297.636719 1054.308594 294.632812 C 1076.089844 287.492188 1094.863281 299.515625 1099.746094 322.0625 C 1103.5 340.847656 1100.871094 357.382812 1085.101562 371.285156 Z M 1631.089844 462.214844 C 1631.089844 461.460938 1631.089844 460.335938 1631.089844 459.582031 C 1646.109375 458.832031 1661.128906 458.078125 1677.652344 456.953125 C 1667.136719 469.726562 1640.476562 471.984375 1631.089844 462.214844 Z M 1723.089844 326.570312 C 1721.210938 344.980469 1717.832031 363.015625 1714.828125 381.429688 C 1713.699219 387.441406 1712.199219 393.828125 1711.074219 399.839844 C 1709.945312 405.101562 1707.691406 407.355469 1701.683594 406.601562 C 1673.898438 403.597656 1646.484375 406.601562 1619.824219 414.117188 C 1613.441406 415.996094 1607.433594 419.003906 1599.546875 422.007812 C 1601.800781 414.871094 1603.675781 409.234375 1605.179688 403.597656 C 1613.066406 375.042969 1623.953125 347.988281 1643.855469 325.441406 C 1657.75 309.660156 1672.394531 295.007812 1694.175781 289.746094 C 1706.941406 286.742188 1717.082031 291.625 1720.085938 304.402344 C 1721.960938 311.539062 1723.839844 319.429688 1723.089844 326.570312 Z M 1963.414062 381.429688 C 1955.902344 402.46875 1946.515625 422.761719 1930.746094 439.292969 C 1921.355469 449.0625 1911.96875 459.207031 1898.074219 462.589844 C 1877.796875 467.847656 1862.402344 456.578125 1859.023438 435.910156 C 1855.265625 412.992188 1860.898438 391.574219 1868.410156 370.53125 C 1875.167969 351.371094 1884.179688 332.957031 1897.324219 317.175781 C 1907.464844 304.777344 1920.230469 296.136719 1936 292.003906 C 1953.273438 287.492188 1971.300781 299.894531 1974.679688 319.054688 C 1975.429688 323.1875 1975.429688 327.699219 1975.804688 331.832031 C 1976.554688 332.207031 1976.933594 332.207031 1977.683594 332.582031 C 1972.800781 348.738281 1969.046875 365.273438 1963.414062 381.429688 Z M 2142.90625 542.246094 C 2130.515625 564.414062 2112.867188 579.820312 2086.207031 582.074219 C 2076.066406 582.828125 2069.683594 579.820312 2067.054688 573.433594 C 2064.050781 566.292969 2066.304688 559.53125 2073.4375 552.765625 C 2088.457031 538.488281 2106.859375 530.597656 2125.257812 522.707031 C 2133.894531 518.949219 2142.53125 515.570312 2152.292969 511.433594 C 2151.917969 523.460938 2147.789062 533.226562 2142.90625 542.246094 Z M 2204.488281 520.078125 C 2203.738281 519.703125 2202.988281 519.324219 2202.238281 518.949219 C 2202.238281 508.054688 2201.863281 497.15625 2202.238281 486.261719 C 2202.238281 484.382812 2204.488281 482.128906 2205.992188 481 C 2230.398438 462.964844 2251.804688 441.921875 2270.203125 414.871094 C 2279.96875 431.027344 2288.980469 446.433594 2298.742188 462.589844 C 2261.941406 474.613281 2229.273438 491.144531 2204.488281 520.078125 Z M 2261.941406 579.070312 C 2254.808594 580.570312 2248.800781 580.195312 2243.917969 574.9375 C 2239.035156 569.675781 2242.417969 564.039062 2244.667969 558.777344 C 2252.179688 541.117188 2266.824219 530.597656 2283.347656 522.707031 C 2290.855469 518.949219 2298.742188 516.320312 2307.003906 513.3125 C 2307.378906 536.609375 2288.980469 573.808594 2261.941406 579.070312 Z M 2261.941406 579.070312 " fill-opacity="1" fill-rule="nonzero"/></g><path fill="#80aa1a" d="M 94.132812 455.449219 C 94.511719 455.824219 94.886719 455.824219 94.886719 455.824219 C 95.261719 455.449219 95.261719 455.449219 95.636719 455.074219 C 95.261719 455.449219 94.886719 455.449219 94.132812 455.449219 Z M 484.664062 280.730469 C 473.023438 272.464844 459.878906 266.453125 446.738281 259.3125 C 447.863281 257.808594 449.367188 255.929688 451.242188 254.429688 C 480.53125 222.113281 495.175781 185.667969 485.039062 141.707031 C 478.65625 113.523438 462.882812 91.730469 439.601562 75.199219 C 416.320312 58.667969 389.660156 51.152344 361.496094 48.898438 C 315.683594 45.140625 273.253906 55.285156 236.078125 82.335938 C 191.390625 114.652344 164.355469 157.484375 168.484375 214.597656 C 171.863281 258.9375 199.277344 287.117188 247.71875 282.234375 C 249.21875 282.234375 251.847656 278.851562 251.472656 277.347656 C 247.71875 257.808594 242.085938 239.023438 231.195312 221.738281 C 227.441406 216.101562 224.8125 208.585938 225.1875 202.199219 C 225.9375 184.914062 231.195312 168.757812 241.710938 154.480469 C 260.109375 129.304688 284.894531 115.027344 315.308594 108.265625 C 341.59375 102.253906 367.503906 103.378906 392.289062 113.898438 C 412.941406 122.917969 427.585938 137.949219 429.464844 161.996094 C 431.714844 195.8125 416.320312 221.363281 389.660156 239.398438 C 375.765625 248.792969 359.617188 254.050781 344.222656 260.816406 C 339.339844 262.695312 337.464844 263.820312 339.71875 269.832031 C 343.097656 279.226562 345.347656 288.996094 347.226562 298.765625 C 348.351562 304.777344 350.230469 305.90625 356.238281 305.152344 C 377.269531 302.148438 397.921875 298.765625 418.949219 304.027344 C 443.734375 310.414062 461.757812 325.441406 467.390625 350.242188 C 471.519531 368.277344 470.019531 385.5625 463.257812 402.847656 C 449.363281 438.164062 415.945312 457.328125 384.777344 461.460938 C 355.113281 465.21875 326.949219 458.832031 299.539062 448.3125 C 298.785156 447.933594 298.035156 447.558594 296.910156 447.183594 C 284.515625 443.425781 272.125 440.042969 259.734375 437.414062 C 246.214844 434.785156 232.695312 432.90625 219.179688 431.777344 C 218.425781 434.410156 217.675781 436.664062 217.300781 438.542969 C 217.300781 437.414062 218.050781 435.160156 218.804688 431.777344 C 209.792969 431.027344 200.777344 430.652344 191.390625 430.652344 C 192.519531 431.027344 193.644531 431.777344 194.769531 432.152344 C 199.277344 434.410156 203.78125 437.039062 207.914062 439.667969 C 209.792969 440.796875 211.667969 441.921875 213.546875 443.050781 C 216.925781 444.929688 218.425781 447.183594 215.421875 450.941406 C 212.796875 454.324219 210.167969 457.328125 207.539062 460.335938 C 197.398438 471.984375 186.132812 481.753906 171.488281 487.765625 C 163.226562 491.144531 154.96875 492.648438 146.707031 493.023438 C 161.351562 502.792969 177.871094 510.683594 195.144531 512.1875 C 204.535156 509.179688 213.546875 505.046875 221.433594 499.410156 C 225.5625 496.40625 229.691406 493.398438 233.449219 489.640625 C 234.199219 488.890625 234.199219 487.765625 233.449219 487.011719 C 227.816406 479.121094 187.636719 464.09375 237.953125 481.75 C 242.460938 483.253906 247.34375 485.132812 252.972656 487.011719 C 254.851562 487.765625 256.730469 488.890625 258.984375 489.640625 C 283.015625 500.164062 307.796875 508.804688 333.707031 513.691406 C 367.503906 520.078125 400.171875 517.070312 431.714844 505.800781 C 488.792969 484.757812 521.085938 442.675781 527.472656 382.554688 C 532.351562 340.472656 519.210938 305.527344 484.664062 280.730469 Z M 174.492188 424.261719 C 186.886719 421.632812 199.652344 419.753906 212.417969 418.25 C 200.777344 409.609375 187.261719 400.96875 170.738281 395.707031 C 147.082031 393.453125 124.175781 397.585938 102.769531 410.738281 C 88.125 419.753906 76.484375 431.402344 66.722656 444.554688 C 74.984375 446.433594 82.871094 449.4375 90.378906 453.195312 C 91.128906 453.570312 91.507812 453.945312 92.257812 453.945312 C 94.132812 453.195312 96.011719 452.820312 98.265625 452.445312 C 108.402344 440.796875 119.667969 432.152344 133.9375 426.894531 C 147.457031 421.632812 160.976562 421.257812 174.492188 424.261719 Z M 344.222656 161.996094 C 329.953125 161.996094 315.308594 162.746094 301.039062 161.996094 C 294.65625 161.621094 292.027344 163.875 290.523438 169.511719 C 285.269531 190.550781 279.636719 211.96875 274.003906 233.011719 C 269.121094 251.046875 264.617188 269.457031 260.109375 287.867188 C 256.355469 303.273438 252.597656 318.679688 248.09375 333.710938 C 245.089844 343.855469 240.207031 360.761719 234.949219 378.046875 C 230.820312 391.574219 226.6875 405.476562 222.933594 417.5 C 235.324219 416.371094 247.71875 415.996094 260.109375 416.371094 C 266.117188 416.371094 272.5 416.75 278.507812 417.125 C 279.636719 414.492188 280.761719 411.488281 281.886719 408.859375 C 312.679688 328.824219 328.453125 245.035156 352.109375 161.996094 C 349.105469 161.996094 346.851562 161.621094 344.222656 161.996094 Z M 344.222656 161.996094 " fill-opacity="1" fill-rule="nonzero"/><path fill="#80aa1a" d="M 297.285156 446.433594 C 298.035156 446.808594 299.160156 446.808594 299.914062 447.183594 C 296.910156 450.566406 293.90625 454.324219 290.902344 457.703125 C 289.398438 459.582031 287.898438 461.085938 286.394531 462.964844 C 282.640625 467.097656 278.507812 471.605469 274.378906 475.363281 C 269.871094 479.871094 264.992188 484.382812 259.734375 488.515625 C 258.605469 489.640625 257.480469 490.394531 255.980469 491.519531 C 239.082031 503.921875 218.804688 512.5625 197.773438 511.433594 C 197.023438 511.433594 196.273438 511.433594 195.523438 511.058594 C 178.25 509.554688 161.726562 501.664062 147.082031 491.898438 C 145.203125 490.769531 143.324219 489.265625 141.449219 488.140625 C 126.054688 477.242188 111.40625 465.21875 95.261719 455.824219 C 94.886719 455.449219 94.511719 455.449219 94.511719 455.449219 C 93.757812 455.074219 93.007812 454.699219 92.257812 454.324219 C 91.507812 453.945312 91.128906 453.570312 90.378906 453.570312 C 82.871094 449.8125 74.984375 446.808594 66.722656 444.929688 C 54.707031 442.296875 42.316406 442.296875 30.671875 446.808594 C 67.847656 419.753906 109.53125 385.9375 153.839844 373.539062 C 182.003906 365.648438 204.535156 367.148438 222.933594 373.160156 C 227.441406 374.664062 231.570312 376.167969 235.324219 378.046875 C 249.59375 384.808594 261.609375 393.453125 272.125 401.34375 C 272.5 401.71875 272.875 402.09375 273.25 402.09375 C 276.253906 404.347656 279.261719 406.601562 282.265625 408.480469 C 289.023438 413.367188 295.40625 416.75 301.789062 418.628906 C 294.28125 417.875 286.394531 417.125 278.882812 416.75 C 272.875 416.371094 266.492188 415.996094 260.484375 415.996094 C 248.09375 415.996094 235.699219 416.371094 223.308594 417.125 C 219.554688 417.5 215.800781 417.875 212.042969 418.25 C 199.277344 419.753906 186.507812 421.632812 174.117188 424.261719 C 165.855469 425.765625 157.972656 427.644531 150.085938 429.898438 C 144.828125 431.402344 139.570312 432.90625 134.3125 434.40625 C 138.820312 433.65625 143.324219 432.90625 147.832031 432.53125 C 162.476562 430.652344 176.746094 429.898438 191.390625 429.898438 C 200.402344 429.898438 209.414062 430.273438 218.804688 431.027344 C 219.179688 431.027344 219.179688 431.027344 219.554688 431.027344 C 233.074219 432.152344 246.964844 434.03125 260.109375 436.664062 C 272.875 439.292969 285.269531 442.296875 297.285156 446.433594 Z M 297.285156 446.433594 " fill-opacity="1" fill-rule="nonzero"/></svg>